<svg width="269" height="74" viewBox="0 0 269 74" fill="none" xmlns="http://www.w3.org/2000/svg">
<path d="M44.5001 49C36.2702 50.605 47.0475 29 55.4324 29C63.8173 29 75.7299 50.605 67.5001 49C62.5822 48.0409 60.4429 33.5 55.4324 33.5C50.4219 33.5 49.418 48.0409 44.5001 49Z" fill="#006FFD"/>
<path d="M52.4323 42C52.4323 40.3431 53.7755 39 55.4324 39C57.0892 39 58.4323 40.3432 58.4323 42C58.4323 43.6569 57.0892 45 55.4323 45C53.7755 45 52.4323 43.6569 52.4323 42Z" fill="#006FFD"/>
<path d="M44.5001 49C36.2702 50.605 47.0475 29 55.4324 29C63.8173 29 75.7299 50.605 67.5001 49C62.5822 48.0409 60.4429 33.5 55.4324 33.5C50.4219 33.5 49.418 48.0409 44.5001 49Z" stroke="#006FFD"/>
<path d="M52.4323 42C52.4323 40.3431 53.7755 39 55.4324 39C57.0892 39 58.4323 40.3432 58.4323 42C58.4323 43.6569 57.0892 45 55.4323 45C53.7755 45 52.4323 43.6569 52.4323 42Z" stroke="#006FFD"/>
<path d="M83.708 29.184C84.0707 28.9707 84.6147 28.768 85.34 28.576C86.0867 28.384 86.8333 28.288 87.58 28.288C88.6467 28.288 89.5853 28.448 90.396 28.768C91.228 29.0667 91.7613 29.5467 91.996 30.208C92.38 31.3173 92.796 32.608 93.244 34.08C93.692 35.552 94.14 37.0773 94.588 38.656C95.036 40.2133 95.4733 41.76 95.9 43.296C96.3267 44.8107 96.7 46.1547 97.02 47.328C96.764 47.6267 96.38 47.8613 95.868 48.032C95.356 48.224 94.748 48.32 94.044 48.32C93.532 48.32 93.0947 48.2773 92.732 48.192C92.3907 48.1067 92.1027 47.9787 91.868 47.808C91.6547 47.6373 91.4733 47.4133 91.324 47.136C91.196 46.8587 91.0787 46.5387 90.972 46.176L90.396 43.968H84.604C84.4333 44.608 84.2627 45.2693 84.092 45.952C83.9213 46.6347 83.7507 47.296 83.58 47.936C83.2813 48.0427 82.9613 48.128 82.62 48.192C82.3 48.2773 81.9053 48.32 81.436 48.32C80.348 48.32 79.5373 48.1387 79.004 47.776C78.492 47.392 78.236 46.8693 78.236 46.208C78.236 45.9093 78.2787 45.6107 78.364 45.312C78.4493 45.0133 78.5453 44.6613 78.652 44.256C78.8013 43.68 79.004 42.9653 79.26 42.112C79.5373 41.2587 79.836 40.3413 80.156 39.36C80.476 38.3573 80.8173 37.3333 81.18 36.288C81.5427 35.2427 81.884 34.2613 82.204 33.344C82.524 32.4053 82.812 31.5733 83.068 30.848C83.3453 30.1227 83.5587 29.568 83.708 29.184ZM87.548 33.312C87.2493 34.208 86.908 35.2107 86.524 36.32C86.1613 37.408 85.8307 38.5173 85.532 39.648H89.5C89.2013 38.496 88.892 37.376 88.572 36.288C88.2733 35.1787 87.996 34.1867 87.74 33.312H87.548ZM107.745 36.256C107.211 36.256 106.699 36.3413 106.209 36.512C105.739 36.6827 105.323 36.9387 104.961 37.28C104.619 37.6 104.342 38.0053 104.129 38.496C103.915 38.9867 103.809 39.5627 103.809 40.224C103.809 41.5467 104.182 42.5387 104.929 43.2C105.697 43.8613 106.625 44.192 107.713 44.192C108.353 44.192 108.907 44.1173 109.377 43.968C109.846 43.8187 110.262 43.6587 110.625 43.488C111.051 43.7867 111.371 44.1173 111.585 44.48C111.798 44.8213 111.905 45.2373 111.905 45.728C111.905 46.6027 111.489 47.2853 110.657 47.776C109.825 48.2453 108.673 48.48 107.201 48.48C105.857 48.48 104.641 48.288 103.553 47.904C102.465 47.4987 101.526 46.944 100.737 46.24C99.9685 45.5147 99.3712 44.6507 98.9445 43.648C98.5178 42.6453 98.3045 41.536 98.3045 40.32C98.3045 38.912 98.5285 37.6853 98.9765 36.64C99.4458 35.5733 100.075 34.6987 100.865 34.016C101.654 33.3333 102.561 32.8213 103.585 32.48C104.63 32.1387 105.729 31.968 106.881 31.968C108.417 31.968 109.601 32.2453 110.433 32.8C111.265 33.3547 111.681 34.0693 111.681 34.944C111.681 35.3493 111.585 35.7333 111.393 36.096C111.201 36.4373 110.977 36.736 110.721 36.992C110.358 36.8213 109.921 36.6613 109.409 36.512C108.897 36.3413 108.342 36.256 107.745 36.256ZM130.26 40.224C130.26 41.5467 130.057 42.7307 129.652 43.776C129.247 44.8 128.671 45.664 127.924 46.368C127.199 47.072 126.324 47.6053 125.3 47.968C124.276 48.3307 123.135 48.512 121.876 48.512C120.617 48.512 119.476 48.32 118.452 47.936C117.428 47.552 116.543 47.008 115.796 46.304C115.071 45.5787 114.505 44.704 114.1 43.68C113.695 42.656 113.492 41.504 113.492 40.224C113.492 38.9653 113.695 37.824 114.1 36.8C114.505 35.776 115.071 34.912 115.796 34.208C116.543 33.4827 117.428 32.928 118.452 32.544C119.476 32.16 120.617 31.968 121.876 31.968C123.135 31.968 124.276 32.1707 125.3 32.576C126.324 32.96 127.199 33.5147 127.924 34.24C128.671 34.944 129.247 35.808 129.652 36.832C130.057 37.856 130.26 38.9867 130.26 40.224ZM119.06 40.224C119.06 41.5253 119.305 42.528 119.796 43.232C120.308 43.9147 121.012 44.256 121.908 44.256C122.804 44.256 123.487 43.904 123.956 43.2C124.447 42.496 124.692 41.504 124.692 40.224C124.692 38.944 124.447 37.9627 123.956 37.28C123.465 36.576 122.772 36.224 121.876 36.224C120.98 36.224 120.287 36.576 119.796 37.28C119.305 37.9627 119.06 38.944 119.06 40.224ZM140.37 31.968C141.245 31.968 142.098 32.096 142.93 32.352C143.783 32.5867 144.519 32.9493 145.138 33.44C145.778 33.0133 146.493 32.6613 147.282 32.384C148.093 32.1067 149.063 31.968 150.194 31.968C151.005 31.968 151.794 32.0747 152.562 32.288C153.351 32.5013 154.045 32.8427 154.642 33.312C155.261 33.76 155.751 34.368 156.114 35.136C156.477 35.8827 156.658 36.8 156.658 37.888V47.968C156.445 48.032 156.103 48.096 155.634 48.16C155.186 48.224 154.717 48.256 154.226 48.256C153.757 48.256 153.33 48.224 152.946 48.16C152.583 48.096 152.274 47.968 152.018 47.776C151.762 47.584 151.559 47.328 151.41 47.008C151.282 46.6667 151.218 46.2293 151.218 45.696V38.048C151.218 37.408 151.037 36.9493 150.674 36.672C150.311 36.3733 149.821 36.224 149.202 36.224C148.903 36.224 148.583 36.2987 148.242 36.448C147.901 36.576 147.645 36.7147 147.474 36.864C147.495 36.9493 147.506 37.0347 147.506 37.12C147.506 37.184 147.506 37.248 147.506 37.312V47.968C147.271 48.032 146.919 48.096 146.45 48.16C146.002 48.224 145.543 48.256 145.074 48.256C144.605 48.256 144.178 48.224 143.794 48.16C143.431 48.096 143.122 47.968 142.866 47.776C142.61 47.584 142.407 47.328 142.258 47.008C142.13 46.6667 142.066 46.2293 142.066 45.696V38.048C142.066 37.408 141.863 36.9493 141.458 36.672C141.074 36.3733 140.605 36.224 140.05 36.224C139.666 36.224 139.335 36.288 139.058 36.416C138.781 36.5227 138.546 36.6293 138.354 36.736V47.968C138.141 48.032 137.799 48.096 137.33 48.16C136.882 48.224 136.413 48.256 135.922 48.256C135.453 48.256 135.026 48.224 134.642 48.16C134.279 48.096 133.97 47.968 133.714 47.776C133.458 47.584 133.255 47.328 133.106 47.008C132.978 46.6667 132.914 46.2293 132.914 45.696V36.032C132.914 35.456 133.031 34.9973 133.266 34.656C133.522 34.3147 133.863 33.9947 134.29 33.696C135.015 33.184 135.911 32.768 136.978 32.448C138.066 32.128 139.197 31.968 140.37 31.968ZM167.113 31.968C168.393 31.968 169.577 32.1387 170.665 32.48C171.774 32.8 172.723 33.3013 173.513 33.984C174.302 34.6667 174.921 35.5307 175.369 36.576C175.817 37.6 176.041 38.8267 176.041 40.256C176.041 41.6213 175.849 42.816 175.465 43.84C175.081 44.864 174.537 45.728 173.833 46.432C173.129 47.1147 172.275 47.6267 171.273 47.968C170.291 48.3093 169.193 48.48 167.977 48.48C167.059 48.48 166.206 48.3413 165.417 48.064V53.376C165.203 53.44 164.862 53.504 164.393 53.568C163.923 53.6533 163.443 53.696 162.953 53.696C162.483 53.696 162.057 53.664 161.673 53.6C161.31 53.536 161.001 53.408 160.745 53.216C160.489 53.024 160.297 52.7573 160.169 52.416C160.041 52.096 159.977 51.6693 159.977 51.136V35.776C159.977 35.2 160.094 34.7307 160.329 34.368C160.585 34.0053 160.926 33.6747 161.353 33.376C162.014 32.9493 162.835 32.608 163.817 32.352C164.798 32.096 165.897 31.968 167.113 31.968ZM167.177 44.192C169.374 44.192 170.473 42.88 170.473 40.256C170.473 38.8907 170.195 37.8773 169.641 37.216C169.107 36.5547 168.329 36.224 167.305 36.224C166.899 36.224 166.537 36.2773 166.217 36.384C165.897 36.4693 165.619 36.576 165.385 36.704V43.744C165.641 43.872 165.918 43.9787 166.217 44.064C166.515 44.1493 166.835 44.192 167.177 44.192ZM185.414 44.544C185.776 44.544 186.171 44.512 186.598 44.448C187.046 44.3627 187.376 44.256 187.59 44.128V41.568L185.286 41.76C184.688 41.8027 184.198 41.9307 183.814 42.144C183.43 42.3573 183.238 42.6773 183.238 43.104C183.238 43.5307 183.398 43.8827 183.718 44.16C184.059 44.416 184.624 44.544 185.414 44.544ZM185.158 31.968C186.31 31.968 187.355 32.0853 188.294 32.32C189.254 32.5547 190.064 32.9173 190.726 33.408C191.408 33.8773 191.931 34.4853 192.294 35.232C192.656 35.9573 192.838 36.8213 192.838 37.824V44.992C192.838 45.5467 192.678 46.0053 192.358 46.368C192.059 46.7093 191.696 47.008 191.27 47.264C189.883 48.096 187.931 48.512 185.414 48.512C184.283 48.512 183.259 48.4053 182.342 48.192C181.446 47.9787 180.667 47.6587 180.006 47.232C179.366 46.8053 178.864 46.2613 178.502 45.6C178.16 44.9387 177.99 44.1707 177.99 43.296C177.99 41.824 178.427 40.6933 179.302 39.904C180.176 39.1147 181.531 38.624 183.366 38.432L187.558 37.984V37.76C187.558 37.1413 187.28 36.704 186.726 36.448C186.192 36.1707 185.414 36.032 184.39 36.032C183.579 36.032 182.79 36.1173 182.022 36.288C181.254 36.4587 180.56 36.672 179.942 36.928C179.664 36.736 179.43 36.448 179.238 36.064C179.046 35.6587 178.95 35.2427 178.95 34.816C178.95 34.2613 179.078 33.824 179.334 33.504C179.611 33.1627 180.027 32.8747 180.582 32.64C181.2 32.4053 181.926 32.2347 182.758 32.128C183.611 32.0213 184.411 31.968 185.158 31.968ZM206.02 38.144C206.02 37.4827 205.828 37.0027 205.444 36.704C205.081 36.384 204.58 36.224 203.94 36.224C203.513 36.224 203.087 36.2773 202.66 36.384C202.255 36.4907 201.903 36.6507 201.604 36.864V47.968C201.391 48.032 201.049 48.096 200.58 48.16C200.132 48.224 199.663 48.256 199.172 48.256C198.703 48.256 198.276 48.224 197.892 48.16C197.529 48.096 197.22 47.968 196.964 47.776C196.708 47.584 196.505 47.328 196.356 47.008C196.228 46.6667 196.164 46.2293 196.164 45.696V36.096C196.164 35.52 196.281 35.0507 196.516 34.688C196.772 34.3253 197.113 33.9947 197.54 33.696C198.265 33.184 199.172 32.768 200.26 32.448C201.369 32.128 202.596 31.968 203.94 31.968C206.351 31.968 208.207 32.5013 209.508 33.568C210.809 34.6133 211.46 36.0747 211.46 37.952V47.968C211.247 48.032 210.905 48.096 210.436 48.16C209.988 48.224 209.519 48.256 209.028 48.256C208.559 48.256 208.132 48.224 207.748 48.16C207.385 48.096 207.076 47.968 206.82 47.776C206.564 47.584 206.361 47.328 206.212 47.008C206.084 46.6667 206.02 46.2293 206.02 45.696V38.144ZM216.846 44.032C216.611 43.4987 216.355 42.9013 216.078 42.24C215.822 41.5787 215.545 40.8213 215.246 39.968C214.969 39.1147 214.67 38.144 214.35 37.056C214.051 35.9467 213.731 34.6773 213.39 33.248C213.689 32.9493 214.083 32.6933 214.574 32.48C215.086 32.2453 215.641 32.128 216.238 32.128C216.985 32.128 217.603 32.288 218.094 32.608C218.585 32.9067 218.947 33.4827 219.182 34.336L221.71 43.136H221.838C222.094 42.4107 222.339 41.6213 222.574 40.768C222.83 39.9147 223.075 39.04 223.31 38.144C223.545 37.2267 223.758 36.32 223.95 35.424C224.163 34.5067 224.345 33.6107 224.494 32.736C225.262 32.3307 226.105 32.128 227.022 32.128C227.769 32.128 228.387 32.288 228.878 32.608C229.369 32.928 229.614 33.4827 229.614 34.272C229.614 34.848 229.539 35.52 229.39 36.288C229.241 37.0347 229.038 37.8347 228.782 38.688C228.547 39.5413 228.259 40.4267 227.918 41.344C227.598 42.24 227.257 43.1253 226.894 44C226.531 44.8747 226.158 45.7067 225.774 46.496C225.39 47.264 225.017 47.9573 224.654 48.576C224.057 49.6213 223.502 50.4747 222.99 51.136C222.478 51.7973 221.987 52.3093 221.518 52.672C221.049 53.056 220.579 53.312 220.11 53.44C219.641 53.5893 219.15 53.664 218.638 53.664C217.742 53.664 217.017 53.3973 216.462 52.864C215.907 52.3307 215.577 51.6373 215.47 50.784C216.153 50.2507 216.835 49.6533 217.518 48.992C218.201 48.352 218.819 47.6907 219.374 47.008C219.011 46.9013 218.617 46.656 218.19 46.272C217.785 45.8667 217.337 45.12 216.846 44.032Z" fill="#006FFD"/>
</svg>
