<svg width="149" height="118" viewBox="0 0 149 118" fill="none" xmlns="http://www.w3.org/2000/svg">
<path d="M25.5432 113.461C-9.49249 120.746 36.3878 22.6923 72.0836 22.6923C107.779 22.6923 158.493 120.746 123.457 113.461C102.521 109.109 93.4142 43.1153 72.0836 43.1153C50.753 43.1153 46.4794 109.109 25.5432 113.461Z" fill="#006FFD"/>
<path d="M59.3119 81.6923C59.3119 74.1726 65.03 68.0767 72.0836 68.0769C79.137 68.077 84.8548 74.1728 84.8548 81.6923C84.8548 89.2118 79.1368 95.3076 72.0833 95.3076C65.0299 95.3076 59.3119 89.2118 59.3119 81.6923Z" fill="#006FFD"/>
<path d="M25.5432 113.461C-9.49249 120.746 36.3878 22.6923 72.0836 22.6923C107.779 22.6923 158.493 120.746 123.457 113.461C102.521 109.109 93.4142 43.1153 72.0836 43.1153C50.753 43.1153 46.4794 109.109 25.5432 113.461Z" stroke="#006FFD"/>
<path d="M59.3119 81.6923C59.3119 74.1726 65.03 68.0767 72.0836 68.0769C79.137 68.077 84.8548 74.1728 84.8548 81.6923C84.8548 89.2118 79.1368 95.3076 72.0833 95.3076C65.0299 95.3076 59.3119 89.2118 59.3119 81.6923Z" stroke="#006FFD"/>
</svg>
